<?xml version="1.0" standalone="no"?><!DOCTYPE svg PUBLIC "-//W3C//DTD SVG 1.1//EN" "http://www.w3.org/Graphics/SVG/1.1/DTD/svg11.dtd"><svg t="1587360706544" class="icon" viewBox="0 0 1024 1024" version="1.1" xmlns="http://www.w3.org/2000/svg" p-id="3488" xmlns:xlink="http://www.w3.org/1999/xlink" width="128" height="128"><defs><style type="text/css"></style></defs><path d="M204.928 286.464a4.476 4.476 0 1 0 572.928 0 4.476 4.476 0 1 0-572.928 0z" p-id="3489"></path><path d="M869.312 523.264c-35.392-43.2-101.888-51.2-140.16-10.496C669.504 576.128 585.408 616 491.328 616c-83.264 0-158.976-31.04-216.832-82.048-43.84-38.656-112.64-23.36-145.472 25.024-49.28 72.768-78.4 160.064-78.4 254.72 0 19.072 1.28 37.76 3.648 56.064 11.904 90.56 96 154.24 187.264 154.24h539.392c100.544 0 183.744-77.824 191.232-178.048 0.768-10.624 1.216-21.376 1.216-32.192 0-110.464-39.168-211.328-104.064-290.496z" p-id="3490"></path></svg>