<?xml version="1.0" standalone="no"?><!DOCTYPE svg PUBLIC "-//W3C//DTD SVG 1.1//EN" "http://www.w3.org/Graphics/SVG/1.1/DTD/svg11.dtd"><svg t="1586482699556" class="icon" viewBox="0 0 1024 1024" version="1.1" xmlns="http://www.w3.org/2000/svg" p-id="1848" xmlns:xlink="http://www.w3.org/1999/xlink" width="128" height="128"><defs><style type="text/css"></style></defs><path d="M196.143311 347.799764l164.601373 71.178972c4.448686 2.224343 8.897372 2.224343 13.346057 2.224343 13.346057 0 26.692115-8.897372 33.365143-22.243429 6.673029-17.794743 0-37.813829-17.794743-46.7112L222.835426 281.069478c-17.794743-6.673029-37.813829 0-46.7112 17.794743C169.451197 318.883307 178.348568 338.902393 196.143311 347.799764z" p-id="1849"></path><path d="M196.143311 512.401137l164.601373 71.178972c4.448686 2.224343 8.897372 2.224343 13.346057 2.224343 13.346057 0 26.692115-8.897372 33.365143-22.243429 6.673029-17.794743 0-37.813829-17.794743-46.7112L222.835426 445.670851c-17.794743-6.673029-37.813829 0-46.7112 17.794743C169.451197 483.48468 178.348568 503.503766 196.143311 512.401137z" p-id="1850"></path><path d="M196.143311 677.00251l164.601373 71.178972c4.448686 2.224343 8.897372 2.224343 13.346057 2.224343 13.346057 0 26.692115-8.897372 33.365143-22.243429 6.673029-17.794743 0-37.813829-17.794743-46.7112L222.835426 612.496567c-17.794743-6.673029-37.813829 0-46.7112 17.794743C169.451197 648.086053 178.348568 668.105139 196.143311 677.00251z" p-id="1851"></path><path d="M965.765947 9.699647C956.868576 0.802275 943.522518-1.422067 932.400804 0.802275L512 85.327305 91.599196 5.250961C78.253139 3.026618 67.131424 5.250961 58.234053 14.148333 47.112338 20.821361 42.663653 31.943076 42.663653 45.289133l0 856.372008c0 20.019086 13.346057 37.813829 33.365143 40.038172L503.102628 1023.999999c2.224343 0 4.448686 0 8.897372 0 0 0 0 0 0 0 0 0 0 0 0 0 2.224343 0 4.448686 0 8.897372 0l429.298176-86.749372c20.019086-4.448686 33.365143-20.019086 33.365143-40.038172L983.56069 40.840447C981.336347 27.49439 976.887662 16.372676 965.765947 9.699647zM469.737485 935.026284 124.964339 868.295998 124.964339 94.224676l344.773146 66.730286L469.737485 935.026284zM899.035661 863.847312l-344.773146 68.954629L554.262515 160.954963l344.773146-68.954629L899.035661 863.847312z" p-id="1852"></path><path d="M638.787544 418.978737c4.448686 0 8.897372 0 15.5704-2.224343l164.601373-73.403315c17.794743-8.897372 26.692115-28.916457 17.794743-46.7112-8.897372-17.794743-28.916457-26.692115-46.7112-17.794743L623.217144 352.24845c-17.794743 8.897372-26.692115 28.916457-17.794743 46.7112C612.09543 412.305708 625.441487 418.978737 638.787544 418.978737z" p-id="1853"></path><path d="M638.787544 585.804452c4.448686 0 8.897372 0 15.5704-2.224343l164.601373-73.403315c17.794743-8.897372 26.692115-28.916457 17.794743-46.7112-8.897372-17.794743-28.916457-26.692115-46.7112-17.794743L623.217144 516.849823c-17.794743 8.897372-26.692115 28.916457-17.794743 46.7112C612.09543 576.907081 625.441487 585.804452 638.787544 585.804452z" p-id="1854"></path><path d="M638.787544 750.405825c4.448686 0 8.897372 0 15.5704-2.224343l164.601373-73.403315c17.794743-8.897372 26.692115-28.916457 17.794743-46.7112-8.897372-17.794743-28.916457-26.692115-46.7112-17.794743L623.217144 681.451196c-17.794743 8.897372-26.692115 28.916457-17.794743 46.7112C612.09543 741.508454 625.441487 750.405825 638.787544 750.405825z" p-id="1855"></path></svg>