<?xml version="1.0" standalone="no"?><!DOCTYPE svg PUBLIC "-//W3C//DTD SVG 1.1//EN" "http://www.w3.org/Graphics/SVG/1.1/DTD/svg11.dtd"><svg t="1587086708056" class="icon" viewBox="0 0 1024 1024" version="1.1" xmlns="http://www.w3.org/2000/svg" p-id="1997" xmlns:xlink="http://www.w3.org/1999/xlink" width="128" height="128"><defs><style type="text/css"></style></defs><path d="M992.63998437 643.04v29.76c0 12-5.76 24-11.99999999 35.52-5.76 12-12 24-17.76 29.76-5.76 12-12 17.76-24 17.76-5.76 5.76-17.76 5.76-24 5.76s-12 0-17.76-5.76c-5.76 0-17.76-5.76-24-5.76h-29.76c-12 0-24 5.76-29.76 5.76-12 5.76-17.76 12-29.76 17.76-17.76 17.76-24 35.52-29.76 59.52 0 24 0 41.76 12 59.52 5.76 12 5.76 29.76-5.76 41.76l-17.76 17.76c-5.76 5.76-17.76 12-29.76 17.76s-24 5.76-35.52 12c-12 0-24 5.76-29.76 5.76-5.76 0-12 0-17.76-5.76-5.76-5.76-12-12-12-17.76-5.76-24-17.76-41.76-35.52-53.28-17.76-17.76-41.76-24-65.28-24-24 0-41.76 5.76-65.28 24-17.76 17.76-29.76 35.52-41.76 53.28-5.76 5.76-5.76 12-17.76 17.76 0 5.76-5.76 5.76-17.76 5.76s-17.76 0-29.76-5.76-24-5.76-35.52-12-24-12-29.76-17.76c-12-5.76-17.76-12-24-17.76-5.76-5.76-5.76-12-5.76-17.76 0-5.76 0-17.76 5.76-29.76 5.76-17.76 12-35.52 5.76-53.28 0-17.76-12-41.76-24-53.28-12-12-24-17.76-35.52-17.76-12-5.76-24-5.76-41.76-5.76-12 0-29.76 5.76-41.76 5.76h-29.76c-5.76 0-12-12-24-17.76-5.76-12-12-24-17.76-35.52-5.76-12-12-24-12-35.52s-5.76-24 0-29.76c0-17.76 5.76-24 17.76-29.76 29.76-5.76 47.52-24 65.28-41.76s24-41.76 24-59.52c0-24-5.76-47.52-24-59.52-17.76-24-35.52-35.52-53.28-41.76l-17.76-17.76c-5.76-5.76-5.76-17.76-5.76-24s0-17.76 5.76-29.76c0-12 5.76-24 12-29.76 5.76-12 12-17.76 17.76-29.76 0-5.76 5.76-12 12-17.76s12-5.76 17.76-5.76c5.76 0 12 0 17.76 5.76 17.76 5.76 41.76 12 59.52 5.76 24-5.76 41.76-12 59.52-29.76 5.76-5.76 12-17.76 17.76-29.76s5.76-24 5.76-35.52v-29.76-17.76c0-5.76 0-5.76-5.76-12v-12c5.76-17.76 17.76-24 24-35.52 12-5.76 24-12 35.52-17.76 12-5.76 24-5.76 35.52-12h29.76c5.76 0 12 0 17.76 5.76s5.76 12 12 17.76c5.76 24 17.76 35.52 35.52 53.28 17.76 12 35.52 24 59.52 24s47.52-5.76 65.28-17.76 29.76-29.76 41.76-53.28c0-5.76 5.76-12 12-17.76C635.03998438 36.8 641.27998437 36.8 647.03998438 36.8c12 0 17.76 0 29.76 5.76 12 0 24 5.76 35.52 12 12 5.76 24 12 29.76 17.76 5.76 5.76 12 12 17.76 24 5.76 5.76 5.76 12 5.76 17.76s0 12-5.76 12c-5.76 17.76-12 41.76-5.76 59.52 5.76 24 12 41.76 29.76 59.52 17.76 17.76 35.52 24 59.52 29.76 24 0 47.52 0 65.27999999-12 5.76-5.76 12-5.76 17.76000001-5.76s12 5.76 17.76 12c12 12 17.76 24 29.75999999 41.76 5.76 17.76 12 41.76 17.76 59.52 0 12 0 17.76-5.76 29.76-5.76 5.76-12 12-17.76 12-24 5.76-41.76 17.76-53.28 41.76-17.76 17.76-24 41.76-24 65.28 0 24 5.76 41.76 17.76 59.52s29.76 29.76 47.52 35.52c5.76 0 5.76 5.76 12 5.76 12.48 4.8 18.72 11.04 24.48 23.04z m-475.68 88.8c29.76 0 59.52-5.76 89.28000001-17.76 29.76-12 53.28-29.76 71.52-47.52s35.52-41.76 47.52-71.52c5.76-24 12-53.28 12-83.04s-5.76-59.52-17.76-89.28c-12-29.76-29.76-47.52-47.52-71.52-17.76-17.76-41.76-35.52-71.52-47.52-24-12-53.28-17.76-83.04-17.76-29.76 0-59.52 5.76-89.28 17.76-24 12-47.52 29.76-71.52 47.52-17.76 24-35.52 47.52-47.52 71.52-5.76 29.76-12 59.52-12 89.28s5.76 59.52 17.76 89.28c12 29.76 29.76 53.28 47.52 71.52 17.76 17.76 41.76 35.52 71.52 47.52 23.52 5.76 53.28 11.52 83.04 11.52z" p-id="1998"></path></svg>