<?xml version="1.0" encoding="utf-8"?>
<svg t="1587202500000" class="icon" viewBox="0 0 1024 1024" version="1.1" p-id="1320" width="128" height="128" xmlns="http://www.w3.org/2000/svg">
  <defs/>
  <path d="M 289.01 1024 C 211.008 881.997 252.538 800.634 312.492 723.96 C 378.158 640.015 395.085 556.89 395.085 556.89 C 395.085 556.89 446.704 615.584 426.057 707.392 C 517.24 618.594 534.446 477.124 520.681 422.936 C 726.787 548.944 814.881 821.768 696.166 1023.98 C 1327.567 711.467 853.225 243.846 770.635 191.153 C 798.165 243.825 803.385 332.991 747.763 376.264 C 653.627 63.997 420.882 0 420.882 0 C 448.414 161.028 321.084 337.128 198.321 468.707 C 194.014 404.484 189.424 360.188 150.82 298.73 C 142.159 415.379 40.254 510.464 12.654 627.339 C -24.734 785.622 40.651 901.514 288.989 1023.939 Z" p-id="1321" style=""/>
</svg>