<?xml version="1.0" standalone="no"?><!DOCTYPE svg PUBLIC "-//W3C//DTD SVG 1.1//EN" "http://www.w3.org/Graphics/SVG/1.1/DTD/svg11.dtd"><svg t="1587891701775" class="icon" viewBox="0 0 1024 1024" version="1.1" xmlns="http://www.w3.org/2000/svg" p-id="2038" xmlns:xlink="http://www.w3.org/1999/xlink" width="128" height="128"><defs><style type="text/css"></style></defs><path d="M85.333333 128h853.333334c46.933333 0 85.333333 38.4 85.333333 85.333333v597.333334c0 46.933333-38.4 85.333333-85.333333 85.333333h-853.333334c-46.933333 0-85.333333-38.4-85.333333-85.333333v-597.333334c0-46.933333 38.4-85.333333 85.333333-85.333333z m76.8 554.666667v-119.466667h119.466667v119.466667h59.733333v-298.666667h-59.733333v119.466667h-119.466667V384h-59.733333v298.666667h59.733333z m529.066667-149.333334c0-12.8 0-29.866667-4.266667-42.666666s-8.533333-25.6-17.066666-38.4-12.8-21.333333-25.6-29.866667-21.333333-17.066667-29.866667-25.6-25.6-12.8-38.4-17.066667-25.6-4.266667-42.666667-4.266666-29.866667 0-42.666666 4.266666-25.6 8.533333-38.4 17.066667-21.333333 12.8-29.866667 25.6-17.066667 21.333333-25.6 29.866667-12.8 25.6-17.066667 38.4-4.266667 25.6-4.266666 42.666666 0 29.866667 4.266666 42.666667 8.533333 25.6 17.066667 38.4 12.8 21.333333 25.6 29.866667 21.333333 17.066667 29.866667 25.6 25.6 12.8 38.4 17.066666 25.6 4.266667 42.666666 4.266667 29.866667 0 42.666667-4.266667 25.6-8.533333 38.4-17.066666 21.333333-12.8 29.866667-25.6 17.066667-21.333333 25.6-29.866667 12.8-25.6 17.066666-38.4 4.266667-25.6 4.266667-42.666667z m-59.733333 0c0 12.8-4.266667 25.6-8.533334 38.4s-12.8 21.333333-21.333333 29.866667-17.066667 17.066667-29.866667 21.333333-25.6 8.533333-38.4 8.533334c-12.8 0-25.6-4.266667-38.4-8.533334s-21.333333-12.8-29.866666-21.333333-17.066667-17.066667-21.333334-29.866667-8.533333-25.6-8.533333-38.4 4.266667-25.6 8.533333-38.4 12.8-21.333333 21.333334-29.866666 17.066667-17.066667 29.866666-21.333334 25.6-8.533333 38.4-8.533333c12.8 0 25.6 4.266667 38.4 8.533333s21.333333 12.8 29.866667 21.333334 17.066667 17.066667 21.333333 29.866666 8.533333 25.6 8.533334 38.4z m221.866666 149.333334v-238.933334h89.6V384h-238.933333v59.733333h89.6v238.933334h59.733333z" p-id="2039"></path></svg>