<?xml version="1.0" standalone="no"?><!DOCTYPE svg PUBLIC "-//W3C//DTD SVG 1.1//EN" "http://www.w3.org/Graphics/SVG/1.1/DTD/svg11.dtd"><svg t="1588041856671" class="icon" viewBox="0 0 1024 1024" version="1.1" xmlns="http://www.w3.org/2000/svg" p-id="2086" xmlns:xlink="http://www.w3.org/1999/xlink" width="128" height="128"><defs><style type="text/css"></style></defs><path d="M942.89224187 15.28178157H147.4709681v132.16200122h-96.66964543c-18.19861902 0-35.49235579 12.90654657-35.49235579 31.10387106v66.0810006c0 18.19732448 17.29503131 34.97583502 35.49235579 34.97583503h96.66964543v66.08100062h-96.66964543c-18.19861902 0-35.49235579 12.90654657-35.49235579 31.10387105V442.8716563c0 18.19732448 17.29503131 34.97583502 35.49235579 34.97583502h96.66964543v66.08100061h-96.66964543c-18.19861902 0-35.49235579 12.90654657-35.49235579 31.10387106v66.08229514c0 18.19732448 17.29503131 34.97454048 35.49235579 34.97454048h96.66964543V742.16890469h-96.66964543c-18.19861902 0-35.49235579 12.90654657-35.49235579 31.10387104v66.08100062c0 18.19732448 17.29503131 34.97712957 35.49235579 34.97712957h96.66964543v132.16200123h795.42256829c36.45937588 0 63.62914512-31.62039182 63.62914512-68.01762987V79.42744747c0-36.52539733-27.1684747-64.1456659-63.62914512-64.1456659zM345.71267539 940.41320107H213.55067417v-66.07970608h35.49235579c18.13259757 0 30.58735028-16.77980507 30.58735029-34.97712956V773.27665936c0-18.19602995-12.38873125-31.10257651-30.58735029-31.10257651h-35.49235579v-66.08229515h35.49235579c18.13259757 0 30.58735028-16.777216 30.58735029-34.9745405v-66.08229515c0-18.19732448-12.38873125-31.10387105-30.58735029-31.10387104h-35.49235579v-66.08100062h35.49235579c18.13259757 0 30.58735028-16.77851054 30.58735029-34.97583502v-66.0810006c0-18.19732448-12.38873125-31.10387105-30.58735029-31.10387106h-35.49235579v-66.08100061h35.49235579c18.13259757 0 30.58735028-16.777216 30.58735029-34.97583502v-66.08100062c0-18.19861902-12.38873125-31.10387105-30.58735029-31.10387106h-35.49235579v-66.07970606h132.16200122v859.04653527z" p-id="2087"></path></svg>