<?xml version="1.0" standalone="no"?><!DOCTYPE svg PUBLIC "-//W3C//DTD SVG 1.1//EN" "http://www.w3.org/Graphics/SVG/1.1/DTD/svg11.dtd"><svg t="1587381195629" class="icon" viewBox="0 0 1024 1024" version="1.1" xmlns="http://www.w3.org/2000/svg" p-id="1903" xmlns:xlink="http://www.w3.org/1999/xlink" width="128" height="128"><defs><style type="text/css"></style></defs><path d="M1021.538057 338.148864c0 151.095879-1.151938 302.191757 0.767959 453.287636 0.575969 42.493716-14.207236 68.09234-52.413183 86.587346a6023.036262 6023.036262 0 0 0-250.546533 128.441097c-32.318263 17.535057-59.324811 18.04703-91.451085 0.447975-84.09148-46.077523-170.23085-88.37925-254.066344-135.032742-28.670459-15.935143-50.557283-15.359174-78.651772 0.895952-65.276491 37.885964-132.28089 72.892082-199.157295 107.898201-62.588636 32.766239-94.778906 15.359174-95.226882-52.925156-1.087942-161.271332 0.127993-322.60666-0.703962-483.941988-0.127993-32.126273 11.007408-54.781056 39.677867-69.436267 21.75883-11.135401 42.04574-25.598624 64.38054-35.198109 24.830665-10.687426 48.573389-6.719639 64.700522 17.535058 14.847202 22.3348 10.943412 56.956939-16.511112 68.412323-54.589066 22.782775-51.581228 65.020505-51.069255 110.714049 1.023945 103.866417 0.319983 207.732834 0.319982 324.974533 51.005258-27.262535 89.915167-48.637386 129.337049-69.116285 124.601303-64.828515 80.827656-65.468481 209.460741 0.383979 76.2839 39.037902 151.863837 79.355735 232.37151 121.593464l244.27487-124.601302v-380.779534c-5.311714-2.23988-10.495436-6.14367-15.80715-6.335659-27.134542-0.959948-48.253406-10.367443-54.589066-39.165895-6.911628-31.294318 10.367443-49.85332 35.710081-63.676577 21.502844-11.711371 41.85375-25.982603 64.252546-35.518091 38.717919-16.447116 68.540316 1.919897 74.23601 43.965637 1.407924 10.04746 0.703962 20.350906 0.703962 30.590355zM468.543781 633.364997C389.700018 558.361028 320.64773 475.549479 278.857976 373.346973c-26.23859-64.124553-33.534198-130.233-11.775367-197.237399a254.578316 254.578316 0 0 1 282.60881-172.790712c129.401045 21.182861 217.844291 125.94523 223.283998 258.354113-13.247288 44.477609-22.206806 90.875115-40.637815 133.112845-40.573819 92.923005-105.978304 168.950919-178.998379 238.067204-32.19027 30.462363-52.989152 30.910339-84.859439 0.511973z m49.533337-528.547591c-89.339198-3.839794-160.119394 64.956509-159.671418 155.191659 0.319983 64.700522 68.348326 208.436797 118.073654 249.458591 23.166755 19.070975 51.453234 20.670889 70.716199-3.007838 55.677007-68.348326 103.738424-142.072364 115.449795-231.859538 11.519381-88.18726-56.828945-166.007077-144.56823-169.782874z" p-id="1904"></path></svg>