<?xml version="1.0" encoding="utf-8"?>
<svg t="1586483000724" class="icon" viewBox="0 0 1024 1024" version="1.1" p-id="4571" width="128" height="128" xmlns="http://www.w3.org/2000/svg">
  <defs/>
  <path d="M 621.615 112.643 C 621.615 64.577 572.127 25.44 511.073 25.44 C 450.144 25.44 400.53 64.473 400.53 112.643 C 400.53 117.549 401.089 122.35 402.021 127.048 C 249.45 169.023 124.233 297.892 124.233 450.356 L 124.233 570.448 C 124.233 570.448 124.233 743.306 70.391 744.802 C 38.248 744.802 13.69 764.319 13.69 788.43 C 13.69 812.697 38.434 832.005 68.961 832.005 L 953.122 832.005 C 983.835 832.005 1008.395 812.49 1008.395 788.43 C 1008.395 764.163 983.648 744.802 953.122 744.802 C 897.85 744.802 897.85 571.635 897.85 571.635 L 897.85 450.408 C 897.85 297.737 780.779 168.765 620.062 126.945 C 621.057 122.298 621.555 117.497 621.555 112.643 Z M 676.888 875.53 C 676.701 947.812 603.089 1006.413 511.073 1006.413 C 419.616 1006.413 345.444 948.07 345.257 875.53 L 676.888 875.53 Z" p-id="4572" style=""/>
</svg>