<?xml version="1.0" encoding="utf-8"?>
<svg t="1595719019746" class="icon" viewBox="0 0 1024 1024" version="1.1" p-id="2147" width="128" height="128" xmlns="http://www.w3.org/2000/svg">
  <defs/>
  <path d="M 939.443 587.711 C 932.038 581.155 924.156 574.916 916.034 569.1 L 916.034 93.581 C 916.034 68.52 905.047 44.94 885.102 27.387 C 865.157 9.728 838.643 0 810.338 0 L 105.696 0 C 77.391 0 50.758 9.728 30.933 27.387 C 10.988 45.152 0 68.626 0 93.581 L 0 845.085 C 0 896.687 47.414 938.667 105.696 938.667 L 520.002 938.667 C 523.585 942.262 527.406 945.751 531.228 949.135 C 585.689 997.353 658.183 1024 735.336 1024 C 812.488 1024 884.982 997.459 939.443 949.135 C 993.903 900.917 1024 836.732 1024 768.423 C 1024 700.114 994.023 635.929 939.443 587.711 Z M 309.565 706.247 L 455.27 706.247 C 449.538 726.444 446.671 747.275 446.671 768.423 C 446.671 805.855 455.509 841.808 472.946 875.222 L 105.696 875.222 C 86.946 875.222 71.658 861.687 71.658 845.085 L 71.658 93.581 C 71.658 76.663 86.587 63.445 105.696 63.445 L 810.338 63.445 C 829.447 63.445 844.376 76.663 844.376 93.581 L 844.376 531.562 C 809.86 519.085 773.195 512.74 735.336 512.74 C 658.183 512.74 585.689 539.281 531.228 587.605 C 512.597 604.101 496.593 622.606 483.814 642.696 L 309.565 642.696 C 289.859 642.696 273.735 656.971 273.735 674.419 C 273.735 691.972 289.859 706.247 309.565 706.247 Z M 735.336 960.555 C 615.666 960.555 518.33 874.376 518.33 768.423 C 518.33 741.565 524.421 715.658 536.603 691.232 L 537.558 690.386 L 537.558 689.328 C 538.275 687.954 538.991 686.579 539.708 685.31 C 539.708 685.204 539.827 685.204 539.827 685.099 C 557.264 653.059 584.494 625.884 618.413 606.639 C 653.287 586.759 693.774 576.291 735.336 576.291 C 855.005 576.291 952.341 662.47 952.341 768.423 C 952.341 874.376 855.005 960.555 735.336 960.555 Z" p-id="2148"/>
  <path d="M736.5 263.2c0 16.5-13.5 30-30 30h-364c-16.5 0-30-13.5-30-30s13.5-30 30-30h364c16.5 0 30 13.5 30 30zM288 665.6c0 19.1-15.6 34.7-34.7 34.7s-34.7-15.6-34.7-34.7 15.6-34.7 34.7-34.7 34.7 15.6 34.7 34.7zM736.5 391.2c0 16.5-13.5 30-30 30h-364c-16.5 0-30-13.5-30-30s13.5-30 30-30h364c16.5 0 30 13.5 30 30zM541.9 524.1c-0.1 16.6-13.6 30-30.1 30H342.5c-16.5 0-30-13.5-30-30s13.5-30 30-30h169.4c16.5 0 30 13.5 30 30zM288 524.1c0 19.1-15.6 34.7-34.7 34.7s-34.7-15.6-34.7-34.7 15.6-34.7 34.7-34.7S288 505 288 524.1zM288 391.2c0 19.1-15.6 34.7-34.7 34.7s-34.7-15.6-34.7-34.7 15.6-34.7 34.7-34.7 34.7 15.6 34.7 34.7zM288 263.2c0 19.1-15.6 34.7-34.7 34.7s-34.7-15.6-34.7-34.7 15.6-34.7 34.7-34.7 34.7 15.6 34.7 34.7z" p-id="2149"/>
  <path d="M535.3 675.7c-0.5 1.5-1.1 2.9-1.9 4.3v-0.3c0.6-1.3 1.2-2.6 1.8-3.8 0-0.1 0.1-0.2 0.1-0.2z" p-id="2150"/>
  <path d="M850.6 786.3c0 16.5-13.5 30-30.1 30H684.4c-16.5 0-30-13.5-30-30V679.9c0-16.5 13.5-30 30-30s30 13.5 30 30v76.4h106.2c16.5 0 30 13.5 30 30z" p-id="2151"/>
</svg>
