<?xml version="1.0" encoding="utf-8"?>
<svg t="1590383976075" class="icon" viewBox="0 0 1024 1024" version="1.1" p-id="2696" width="128" height="128" xmlns="http://www.w3.org/2000/svg">
  <defs/>
  <path d="M 342.359 576 L 257.443 576 L 257.443 512 L 342.359 512 L 342.359 576 Z M 342.359 384 L 257.443 384 L 257.443 448 L 342.359 448 L 342.359 384 Z M 342.359 256 L 257.443 256 L 257.443 320 L 342.359 320 L 342.359 256 Z M 342.359 128 L 257.443 128 L 257.443 192 L 342.359 192 L 342.359 128 Z M 1021.688 64 L 1021.688 832 C 1021.688 867.2 983.475 896 936.771 896 L 512.191 896 L 512.191 1024 L 384.817 928 L 257.443 1024 L 257.443 896 L 87.611 896 C 40.908 896 2.695 867.2 2.695 832 L 2.695 64 C 2.695 28.8 40.908 0 87.611 0 L 936.771 0 C 983.475 0 1021.688 28.8 1021.688 64 Z M 936.771 704 L 87.611 704 L 87.611 832 L 257.443 832 L 257.443 768 L 512.191 768 L 512.191 832 L 936.771 832 L 936.771 704 Z M 936.771 64 L 172.527 64 L 172.527 640 L 936.771 640 L 936.771 64 Z" p-id="2697" style=""/>
</svg>