<?xml version="1.0" standalone="no"?><!DOCTYPE svg PUBLIC "-//W3C//DTD SVG 1.1//EN" "http://www.w3.org/Graphics/SVG/1.1/DTD/svg11.dtd"><svg t="1600671914083" class="icon" viewBox="0 0 1024 1024" version="1.1" xmlns="http://www.w3.org/2000/svg" p-id="6866" xmlns:xlink="http://www.w3.org/1999/xlink" width="128" height="128"><defs><style type="text/css"></style></defs><path d="M1012.8 201.6c-8-8-17.6-11.2-28.8-11.2h-107.2v-144c0-4.8-1.6-9.6-3.2-16-1.6-4.8-4.8-9.6-8-12.8-4.8-3.2-8-6.4-12.8-8-4.8-3.2-9.6-3.2-16-3.2H185.6c-11.2 0-19.2 3.2-27.2 11.2s-11.2 17.6-11.2 28.8v144H40c-11.2 0-20.8 3.2-28.8 11.2-6.4 8-11.2 16-11.2 27.2V448c0 62.4 22.4 115.2 65.6 160 38.4 38.4 84.8 60.8 137.6 67.2 30.4 44.8 68.8 83.2 115.2 113.6s97.6 48 153.6 52.8v99.2H300.8c-11.2 0-20.8 3.2-28.8 11.2s-11.2 17.6-11.2 27.2c0 4.8 1.6 9.6 3.2 16 3.2 4.8 4.8 9.6 8 12.8 3.2 3.2 6.4 6.4 12.8 8 4.8 3.2 9.6 3.2 16 3.2h420.8c11.2 0 19.2-3.2 28.8-11.2 8-8 11.2-17.6 11.2-28.8s-3.2-19.2-11.2-27.2c-8-6.4-17.6-11.2-28.8-11.2H552v-99.2c35.2-4.8 70.4-12.8 104-27.2 33.6-14.4 64-33.6 92.8-57.6s51.2-49.6 70.4-81.6c52.8-6.4 97.6-27.2 136-65.6l1.6-1.6c14.4-14.4 25.6-28.8 35.2-44.8 9.6-17.6 17.6-35.2 22.4-54.4 6.4-19.2 8-40 8-59.2V228.8c1.6-11.2-1.6-19.2-9.6-27.2zM147.2 572.8c-4.8-3.2-9.6-6.4-12.8-9.6-4.8-3.2-8-6.4-11.2-11.2-14.4-14.4-25.6-30.4-33.6-48s-11.2-36.8-11.2-56V268.8h67.2v214.4c0 33.6 6.4 65.6 14.4 97.6-3.2-3.2-8-4.8-12.8-8zM945.6 448c0 40-14.4 75.2-43.2 105.6l-1.6 1.6c-12.8 11.2-24 19.2-36.8 25.6 9.6-32 14.4-64 14.4-97.6V268.8h67.2V448z" p-id="6867"></path></svg>