<?xml version="1.0" standalone="no"?><!DOCTYPE svg PUBLIC "-//W3C//DTD SVG 1.1//EN" "http://www.w3.org/Graphics/SVG/1.1/DTD/svg11.dtd"><svg t="1599902531056" class="icon" viewBox="0 0 1047 1024" version="1.1" xmlns="http://www.w3.org/2000/svg" p-id="2722" xmlns:xlink="http://www.w3.org/1999/xlink" width="130.875" height="128"><defs><style type="text/css"></style></defs><path d="M880.896 615.0656c-32.8192 75.8784-87.7568 137.6256-157.2864 179.1488-9.1648 5.5296-18.5344 10.6496-27.904 15.3088-3.8912 1.9456-7.8848 3.584-11.8272 5.376-7.6288 3.3792-15.2576 6.8096-22.9376 9.6768-4.7104 1.792-9.5232 3.2768-14.2848 4.864-7.68 2.56-15.36 5.12-23.1424 7.168-3.7888 0.9728-7.5264 1.7408-11.3152 2.6112-9.1136 2.1504-18.2784 4.1472-27.4944 5.5808-2.0992 0.3584-4.1472 0.5632-6.2976 0.8192-10.8544 1.536-21.8112 2.7648-32.7168 3.3792-0.512 0-0.9728 0.0512-1.4848 0.1024-37.12 1.8432-74.24-1.536-110.1312-10.0864-0.5632-0.1536-1.1776-0.3072-1.792-0.512-11.1616-2.6624-22.2208-5.888-33.1776-9.5744-2.304-0.8192-4.608-1.7408-6.9632-2.6112-80.1792-28.7744-151.6544-83.712-199.7312-161.7408l87.2448-53.6576-268.3904-123.392-10.7008 295.168 87.2448-53.6576c56.4736 91.7504 137.4208 159.1808 229.3248 199.5776 1.1776 0.6144 2.2528 1.3824 3.4816 1.9456 9.472 4.096 19.1488 7.3216 28.7232 10.752 3.584 1.3312 7.1168 2.816 10.752 4.096 13.8752 4.7616 27.904 8.6016 42.0864 12.1344 1.3824 0.3584 2.6624 0.768 3.9936 1.0752 47.104 11.264 95.232 15.5136 143.2064 13.1584 1.28 0 2.56-0.0512 3.8912-0.1536 13.7216-0.8192 27.4432-2.304 41.1648-4.1984 3.3792-0.512 6.8096-0.8192 10.24-1.3312 11.5712-1.8432 23.04-4.3008 34.5088-7.0144 5.4272-1.2288 10.8544-2.4576 16.3328-3.84 9.8304-2.6624 19.6096-5.8368 29.44-9.1136 6.5024-2.1504 13.056-4.2496 19.5072-6.656 2.7136-0.9728 5.4272-1.6384 7.9872-2.7136 8.96-3.5328 17.6128-7.7312 26.3168-11.7248 3.1232-1.4848 6.2976-2.7136 9.4208-4.2496 15.4624-7.5264 30.5152-15.5136 45.0048-24.4224 88.6272-54.528 158.4128-134.912 200.6016-232.5504 13.4144-31.1296-0.8704-67.2768-32-80.7424C930.4064 569.5488 894.2592 583.8848 880.896 615.0656" p-id="2723"></path><path d="M959.744 294.656c-56.32-91.4432-137.0112-158.8224-228.5568-199.2192-1.4336-0.768-2.6624-1.6896-4.1472-2.304-11.3152-4.864-22.784-8.8064-34.2528-12.8-1.3312-0.512-2.6624-1.0752-4.096-1.5872-77.312-26.4704-158.3616-33.7408-238.0288-22.0672-2.2016 0.3072-4.4032 0.512-6.656 0.8704-12.5952 2.048-25.1392 4.7104-37.5808 7.6288C401.9712 66.1504 397.4656 67.072 392.96 68.3008 382.2592 71.168 371.712 74.5472 361.216 78.08 355.3792 80.0256 349.4912 81.92 343.7056 84.0704 340.8384 85.1456 337.9712 85.8624 335.1552 86.9376 327.5264 90.0096 320.3072 93.7472 312.832 97.0752c-5.1712 2.3552-10.24 4.4544-15.36 6.9632C285.2352 110.08 273.408 116.736 261.7856 123.5968 259.6864 124.8768 257.4848 125.8496 255.3856 127.0784 254.976 127.3344 254.72 127.6928 254.3616 127.9488 165.888 182.4768 96.0512 262.3488 53.9136 359.8848 40.3968 391.0144 54.6816 427.1616 85.8624 440.6272 116.992 454.144 153.1904 439.7568 166.6048 408.576 199.2192 333.312 253.4912 271.9232 322.304 230.4c9.8816-5.9904 19.8656-11.4688 30.0032-16.4864 3.1744-1.4848 6.3488-2.8672 9.5232-4.3008 8.4992-3.84 16.9984-7.5264 25.6-10.752 3.84-1.4336 7.68-2.6112 11.52-3.8912C407.5008 192 416.1536 189.184 424.9088 186.88c2.816-0.7168 5.5808-1.28 8.3968-1.9456 10.1376-2.4064 20.2752-4.5568 30.464-6.1952C464.8448 178.5856 465.92 178.4832 466.944 178.3296c61.696-9.0624 124.3136-3.1232 182.528 16.7424 0.3584 0.1024 0.768 0.3072 1.1264 0.4096 82.1248 28.2624 155.4432 83.968 204.4416 163.5328l-87.2448 53.7088 268.3904 123.392 10.6496-295.168L959.744 294.656z" p-id="2724"></path><path d="M472.576 512c0-84.8384 22.9376-153.6 51.2-153.6-169.6768 0-307.2 153.6-307.2 153.6s137.5232 153.6 307.2 153.6C495.5136 665.6 472.576 596.8384 472.576 512z" p-id="2725"></path><path d="M523.776 358.4c28.2624 0 51.2 68.7616 51.2 153.6s-22.9376 153.6-51.2 153.6c169.6256 0 307.2-153.6 307.2-153.6S693.4016 358.4 523.776 358.4z" p-id="2726"></path></svg>