<?xml version="1.0" standalone="no"?><!DOCTYPE svg PUBLIC "-//W3C//DTD SVG 1.1//EN" "http://www.w3.org/Graphics/SVG/1.1/DTD/svg11.dtd"><svg t="1587360659464" class="icon" viewBox="0 0 1024 1024" version="1.1" xmlns="http://www.w3.org/2000/svg" p-id="1911" xmlns:xlink="http://www.w3.org/1999/xlink" width="128" height="128"><defs><style type="text/css"></style></defs><path d="M831.829333 936.704H224.426667c-33.536 0-60.757333-25.344-60.757334-56.704V454.826667c0-31.274667 27.221333-56.704 60.757334-56.704h607.445333c33.536 0 60.757333 25.429333 60.757333 56.746666v425.130667c0 31.36-27.221333 56.746667-60.757333 56.746667z m-303.701333-396.8c-50.346667 0-91.136 37.973333-91.136 84.992 0 31.402667 18.474667 58.538667 45.568 73.216v80.938667c0 24.448 20.394667 44.288 45.568 44.288 25.130667 0 45.525333-19.84 45.525333-44.288v-80.938667c27.136-14.677333 45.610667-41.813333 45.610667-73.216 0-46.976-40.789333-85.034667-91.136-85.034667z m0-368.554667c-100.650667 0-182.272 76.117333-182.272 170.069334H254.762667c0-140.885333 122.368-255.146667 273.365333-255.146667 150.954667 0 273.365333 114.261333 273.365333 255.146667H710.4c0-93.952-81.621333-170.069333-182.229333-170.069334zM831.829333 938.666667H224.426667c-33.536 0-60.757333-25.386667-60.757334-56.746667v-425.173333c0-31.274667 27.221333-56.661333 60.757334-56.661334h607.445333c33.536 0 60.757333 25.386667 60.757333 56.661334v425.216c0 31.317333-27.221333 56.704-60.757333 56.704z m-303.701333-396.885334c-50.346667 0-91.136 38.101333-91.136 85.034667 0 31.445333 18.474667 58.538667 45.568 73.258667v80.938666c0 24.405333 20.394667 44.288 45.568 44.288 25.130667 0 45.525333-19.882667 45.525333-44.288v-80.938666c27.136-14.72 45.610667-41.813333 45.610667-73.258667 0-46.933333-40.789333-84.992-91.136-84.992z m0-368.512c-100.650667 0-182.272 76.16-182.272 170.069334H254.762667c0-140.885333 122.368-255.104 273.365333-255.104 150.954667 0 273.365333 114.218667 273.365333 255.104H710.4c0-93.909333-81.621333-170.069333-182.229333-170.069334z m303.701333 764.458667H224.426667c-33.536 0-60.757333-25.429333-60.757334-56.746667v-425.216c0-31.317333 27.221333-56.661333 60.757334-56.661333h607.445333c33.536 0 60.757333 25.344 60.757333 56.661333v425.216c0 31.317333-27.221333 56.746667-60.757333 56.746667z m-303.701333-396.885333c-50.346667 0-91.136 38.016-91.136 85.034666 0 31.36 18.474667 58.538667 45.568 73.258667v80.896c0 24.448 20.394667 44.245333 45.568 44.245333 25.130667 0 45.525333-19.797333 45.525333-44.245333v-80.896c27.136-14.72 45.610667-41.898667 45.610667-73.258667 0-46.933333-40.789333-85.034667-91.136-85.034666z m0-368.512c-100.650667 0-182.272 76.117333-182.272 170.026666H254.762667c0-140.885333 122.368-255.104 273.365333-255.104 150.954667 0 273.365333 114.218667 273.365333 255.146667H710.4c0-93.952-81.621333-170.069333-182.229333-170.069333z m303.701333 763.434666H224.426667c-33.536 0-60.757333-25.429333-60.757334-56.746666v-425.173334c0-31.36 27.221333-56.746667 60.757334-56.746666h607.445333c33.536 0 60.757333 25.386667 60.757333 56.746666v425.216c0 31.274667-27.221333 56.704-60.757333 56.704z m-303.701333-396.842666c-50.346667 0-91.136 38.016-91.136 84.992 0 31.402667 18.474667 58.538667 45.568 73.258666v80.896c0 24.490667 20.394667 44.288 45.568 44.288 25.130667 0 45.525333-19.797333 45.525333-44.288V697.173333c27.136-14.72 45.610667-41.813333 45.610667-73.258666 0-46.933333-40.789333-84.992-91.136-84.992z m0-368.554667c-100.650667 0-182.272 76.16-182.272 170.112H254.762667C254.762667 199.509333 377.173333 85.333333 528.128 85.333333c150.954667 0 273.365333 114.218667 273.365333 255.146667H710.4c0-93.952-81.621333-170.112-182.229333-170.112z" p-id="1912"></path></svg>