<?xml version="1.0" standalone="no"?><!DOCTYPE svg PUBLIC "-//W3C//DTD SVG 1.1//EN" "http://www.w3.org/Graphics/SVG/1.1/DTD/svg11.dtd"><svg t="1576722982896" class="icon" viewBox="0 0 1024 1024" version="1.1" xmlns="http://www.w3.org/2000/svg" p-id="2814" xmlns:xlink="http://www.w3.org/1999/xlink" width="64" height="64"><defs><style type="text/css"></style></defs><path d="M1008.512 414.848l-99.264-25.728c-7.616-24.704-17.408-48.576-29.312-71.168l51.904-88.256c4.8-8.128 3.456-18.432-3.136-25.088l-109.184-109.248c-6.72-6.656-17.024-7.936-25.152-3.2l-88.32 51.904c-22.528-11.84-46.336-21.632-71.104-29.312l-25.664-99.328c-2.368-9.088-10.624-15.424-20.032-15.424l-154.432 0c-9.344 0-17.6 6.336-19.968 15.424l-25.792 99.328c-24.704 7.68-48.512 17.472-70.976 29.376l-88.32-52.032c-8.192-4.736-18.56-3.52-25.088 3.2l-109.312 109.248c-6.656 6.656-8 16.96-3.136 25.024l51.968 88.384c-11.904 22.464-21.632 46.272-29.376 70.976l-99.328 25.792c-9.152 2.368-15.488 10.624-15.488 20.032l0 154.432c0 9.408 6.336 17.664 15.488 19.968l99.264 25.728c7.68 24.832 17.536 48.64 29.312 71.04l-52.032 88.32c-4.736 8.128-3.456 18.432 3.2 25.088l109.184 109.248c6.72 6.656 17.024 7.936 25.152 3.136l88.32-51.968c22.528 11.84 46.336 21.76 71.04 29.312l25.664 99.328c2.496 9.216 10.752 15.616 20.16 15.616l154.432 0c9.408 0 17.6-6.336 19.968-15.488l25.792-99.328c24.768-7.68 48.576-17.472 71.104-29.312l88.192 51.968c8.192 4.672 18.432 3.456 25.088-3.2l109.248-109.12c6.72-6.656 8-16.96 3.2-25.088l-51.968-88.32c11.968-22.528 21.76-46.336 29.376-71.04l99.264-25.728c9.216-2.432 15.552-10.688 15.552-20.096l0-154.432c0-9.344-6.336-17.664-15.488-19.968l0 0zM512.064 738.624c-124.992 0-226.624-101.632-226.624-226.624s101.632-226.624 226.624-226.624c124.928 0 226.496 101.632 226.496 226.624s-101.632 226.624-226.496 226.624l0 0z" p-id="2815"></path></svg>