<?xml version="1.0" standalone="no"?><!DOCTYPE svg PUBLIC "-//W3C//DTD SVG 1.1//EN" "http://www.w3.org/Graphics/SVG/1.1/DTD/svg11.dtd"><svg t="1586834771083" class="icon" viewBox="0 0 1024 1024" version="1.1" xmlns="http://www.w3.org/2000/svg" p-id="2487" xmlns:xlink="http://www.w3.org/1999/xlink" width="128" height="128"><defs><style type="text/css"></style></defs><path d="M128 896h896v128H0V0h128z m160-64a96 96 0 1 1 8.384-191.616l103.2-172a96 96 0 1 1 160.832 0l103.2 172a103.616 103.616 0 0 1 14.72-0.16l170.368-298.112a96 96 0 1 1 72.96 41.664l-170.368 298.112a96 96 0 1 1-159.712 1.696l-103.2-172c-2.752 0.224-5.568 0.384-8.384 0.384s-5.632-0.16-8.384-0.384l-103.2 172A96 96 0 0 1 288 831.968z" p-id="2488"></path></svg>