<?xml version="1.0" standalone="no"?><!DOCTYPE svg PUBLIC "-//W3C//DTD SVG 1.1//EN" "http://www.w3.org/Graphics/SVG/1.1/DTD/svg11.dtd"><svg t="1586834721515" class="icon" viewBox="0 0 1024 1024" version="1.1" xmlns="http://www.w3.org/2000/svg" p-id="2351" xmlns:xlink="http://www.w3.org/1999/xlink" width="128" height="128"><defs><style type="text/css"></style></defs><path d="M960 0 64 0C28.672 0 0 28.672 0 64l0 640c0 35.328 28.672 64 64 64l256 0-128 256 32 0 230.4-256 115.2 0 230.4 256 32 0-128-256 256 0c35.328 0 64-28.672 64-64L1024 64C1024 28.672 995.328 0 960 0zM960 672c0 17.696-14.304 32-32 32L96 704c-17.696 0-32-14.304-32-32L64 96c0-17.696 14.304-32 32-32l832 0c17.696 0 32 14.304 32 32L960 672zM668.096 500.192 523.424 128.064l-158.016 297.28-88.192-90.72L128 427.616l42.112 24.256 20.256-12.608 75.36-46.976 115.36 118.784 133.6-251.296 147.712 380.128 125.984-265.216 51.328 109.248L896 474.496l-107.328-228.224L668.096 500.192z" p-id="2352"></path></svg>