<?xml version="1.0" encoding="utf-8"?>
<svg t="1600670490514" class="icon" viewBox="0 0 1024 1024" version="1.1" p-id="4580" width="128" height="128" xmlns="http://www.w3.org/2000/svg">
  <defs/>
  <path d="M 512.003 0 C 230.4 0 0 230.4 0 512.003 C 0 793.6 230.4 1024 512.003 1024 C 793.6 1024 1024 793.6 1024 512.003 C 1024 230.4 793.6 0 512.003 0 Z M 748.8 774.401 C 748.8 780.802 742.404 787.204 736.003 787.204 C 736.003 793.6 729.601 793.6 723.201 793.6 L 224 793.6 C 217.6 793.6 211.204 787.204 211.204 780.802 C 211.204 710.4 236.803 652.798 288 601.602 C 320.003 569.601 358.402 550.401 396.804 537.598 C 339.202 512.003 300.804 454.401 300.804 390.4 C 300.804 300.8 377.601 223.998 473.602 223.998 C 569.603 223.998 646.402 300.802 646.402 390.401 C 646.402 454.401 607.998 512.004 550.401 544 C 588.799 556.802 627.203 576.002 659.2 607.998 C 691.203 640.001 710.401 678.4 723.199 716.802 L 806.403 396.802 C 806.403 390.401 819.201 383.999 825.601 383.999 C 832.004 383.999 838.401 396.802 838.401 403.199 L 748.8 774.401 Z M 832.003 313.599 L 736.002 313.599 C 723.199 313.599 716.802 307.202 716.802 294.4 C 716.802 281.6 723.199 275.2 736.002 275.2 L 832.003 275.2 C 844.801 275.2 851.202 281.6 851.202 294.4 C 851.202 307.202 838.4 313.599 832.003 313.599 Z M 832.003 230.4 L 640.001 230.4 C 627.203 230.4 620.802 223.999 620.802 211.201 C 620.802 198.399 627.203 192.002 640.001 192.002 L 832.003 192.002 C 844.801 192.002 851.202 198.399 851.202 211.201 C 844.801 223.999 838.4 230.4 832.003 230.4 Z M 832.003 230.4" p-id="4581"/>
</svg>