<?xml version="1.0" standalone="no"?><!DOCTYPE svg PUBLIC "-//W3C//DTD SVG 1.1//EN" "http://www.w3.org/Graphics/SVG/1.1/DTD/svg11.dtd"><svg t="1586482883099" class="icon" viewBox="0 0 1024 1024" version="1.1" xmlns="http://www.w3.org/2000/svg" p-id="3674" xmlns:xlink="http://www.w3.org/1999/xlink" width="128" height="128"><defs><style type="text/css"></style></defs><path d="M512 0c282.784 0 512 229.216 512 512s-229.216 512-512 512S0 794.784 0 512 229.216 0 512 0z m0 736a64 64 0 1 0 0 128 64 64 0 0 0 0-128zM437.6 207.232l-8.96 3.712a150.24 150.24 0 0 0-92.64 138.752 48 48 0 0 0 95.776 4.64l0.224-4.64c0-21.92 13.184-41.664 33.44-50.08l8.96-3.712c30.88-12.8 66.048-9.92 94.4 7.744l5.92 3.648a75.296 75.296 0 0 1 34.144 78.144l-1.152 5.92a111.424 111.424 0 0 1-53.504 75.328l-6.08 3.296a175.36 175.36 0 0 0-96.928 156.8v10.912a48 48 0 0 0 96 0v-10.88c0-30.08 16.96-57.536 43.84-70.976a207.424 207.424 0 0 0 110.976-146.368l1.12-5.888a171.296 171.296 0 0 0-77.728-177.792l-5.856-3.648a199.616 199.616 0 0 0-181.952-14.912z" p-id="3675"></path></svg>