<?xml version="1.0" standalone="no"?><!DOCTYPE svg PUBLIC "-//W3C//DTD SVG 1.1//EN" "http://www.w3.org/Graphics/SVG/1.1/DTD/svg11.dtd"><svg t="1584497308602" class="icon" viewBox="0 0 1024 1024" version="1.1" xmlns="http://www.w3.org/2000/svg" p-id="2758" xmlns:xlink="http://www.w3.org/1999/xlink" width="500" height="500"><defs><style type="text/css"></style></defs><path d="M512-0.004096c-282.771456 0-512 229.228544-512 512s229.228544 512 512 512 512-229.228544 512-512S794.76736-0.004096 512-0.004096L512-0.004096zM523.853824 801.210368l0 0.663552c-3.985408 0-7.921664-0.237568-11.8784-0.331776-3.956736 0.094208-7.868416 0.331776-11.829248 0.331776l0-0.643072c-33.497088-1.396736-66.404352-5.71392-97.480704-13.750272-55.758848 11.997184-100.80256 57.991168-138.612736 27.406336-36.057088-29.159424-13.041664-72.450048-14.462976-121.11872-35.81952-45.277184-57.634816-106.65984-57.634816-188.23168 0-212.463616 147.00544-288.989184 308.191232-295.673856L500.146176 209.199104c3.956736 0 7.892992 0.237568 11.853824 0.331776 3.956736-0.094208 7.892992-0.331776 11.853824-0.331776l0 0.663552c161.181696 6.684672 308.187136 83.21024 308.187136 295.673856C832.045056 717.975552 685.03552 794.5216 523.853824 801.210368L523.853824 801.210368zM655.70816 469.389312l-35.127296 0c-5.001216 0-9.269248 3.612672-10.09664 8.54016l-10.399744 62.038016c-1.04448 6.242304 3.76832 11.927552 10.09664 11.927552l45.064192 0c15.527936 0 28.11904 12.587008 28.11904 28.11904l0 0c0 15.527936-12.591104 28.11904-28.11904 28.11904l-57.700352 0c-5.009408 0-9.281536 3.620864-10.09664 8.56064l-8.88832 53.612544c-1.961984 11.83744-12.980224 19.972096-24.875008 18.362368l-0.22528-0.032768c-12.41088-1.67936-20.97152-13.287424-18.915328-25.64096l7.159808-42.950656c1.040384-6.238208-3.772416-11.915264-10.09664-11.915264l-73.732096 0c-5.009408 0-9.27744 3.620864-10.09664 8.56064l-8.88832 53.612544c-1.961984 11.83744-12.980224 19.972096-24.875008 18.362368l-0.356352-0.049152c-12.361728-1.671168-20.914176-13.201408-18.935808-25.513984l6.930432-43.118592c0.999424-6.221824-3.805184-11.85792-10.104832-11.85792l-22.09792 0c-15.527936 0-28.11904-12.587008-28.11904-28.11904l0 0c0-15.527936 12.587008-28.11904 28.11904-28.11904l34.7136 0c4.980736 0 9.23648-3.584 10.088448-8.486912l10.743808-62.038016c1.081344-6.258688-3.735552-11.9808-10.088448-11.9808L369.455104 469.38112c-15.527936 0-28.11904-12.587008-28.11904-28.11904l0 0c0-15.527936 12.587008-28.11904 28.11904-28.11904l57.737216 0c4.988928 0 9.252864-3.600384 10.092544-8.51968l9.158656-53.76c2.039808-11.9808 13.336576-20.09088 25.341952-18.194432l0 0c12.189696 1.92512 20.467712 13.422592 18.427904 25.591808l-7.180288 42.815488c-1.060864 6.316032 3.80928 12.066816 10.211328 12.066816l74.0352 0c5.013504 0 9.285632-3.62496 10.100736-8.568832l8.830976-53.571584c1.982464-12.038144 13.307904-20.217856 25.358336-18.313216l0.139264 0.02048c12.091392 1.908736 20.353024 13.242368 18.468864 25.337856l-6.73792 43.286528c-0.966656 6.20544 3.833856 11.808768 10.113024 11.808768l22.15936 0c15.527936 0 28.11904 12.587008 28.11904 28.11904l0 0C683.823104 456.798208 671.236096 469.389312 655.70816 469.389312L655.70816 469.389312zM554.647552 469.389312 480.91136 469.389312c-4.99712 0-9.265152 3.612672-10.09664 8.54016l-10.395648 62.038016c-1.04448 6.242304 3.76832 11.927552 10.09664 11.927552l73.740288 0c5.001216 0 9.265152-3.612672 10.09664-8.544256l10.395648-62.038016C565.788672 475.07456 560.975872 469.389312 554.647552 469.389312L554.647552 469.389312z" p-id="2759"></path></svg>