<?xml version="1.0" encoding="utf-8"?>
<svg t="1600670593630" class="icon" viewBox="0 0 1024 1024" version="1.1" p-id="5919" width="128" height="128" xmlns="http://www.w3.org/2000/svg">
  <defs/>
  <path d="M 170.667 0 C 83.08 0 28.339 85.333 72.132 153.6 C 92.457 185.283 130.017 204.8 170.667 204.8 C 258.253 204.8 312.995 119.467 269.201 51.2 C 248.877 19.518 211.316 0 170.667 0 Z M 398.223 51.2 L 398.223 153.6 L 910.223 153.6 L 910.223 614.4 L 455.111 614.4 L 455.111 716.8 L 588.231 716.8 L 734.549 1024 L 858.34 1024 L 712.021 716.8 L 938.667 716.8 C 985.145 716.8 1024 681.83 1024 640 L 1024 128 C 1024 86.17 985.145 51.2 938.667 51.2 L 398.223 51.2 Z M 113.777 256.001 C 50.94 256.001 0 301.847 0 358.4 L 0 1024 L 113.777 1024 L 113.777 716.8 L 227.556 716.8 L 227.556 1024 L 341.333 1024 L 341.333 358.4 L 682.667 358.4 L 682.667 256.001 L 113.777 256.001 Z" p-id="5920"/>
</svg>