<?xml version="1.0" standalone="no"?><!DOCTYPE svg PUBLIC "-//W3C//DTD SVG 1.1//EN" "http://www.w3.org/Graphics/SVG/1.1/DTD/svg11.dtd"><svg t="1590055816024" class="icon" viewBox="0 0 1024 1024" version="1.1" xmlns="http://www.w3.org/2000/svg" p-id="4049" xmlns:xlink="http://www.w3.org/1999/xlink" width="128" height="128"><defs><style type="text/css"></style></defs><path d="M547.462832 14.258631A51.37517 51.37517 0 0 0 476.586166 14.111635C348.748475 135.530493 100.765892 361.071656 100.765892 612.778142c0 227.109123 184.112735 411.221858 411.246358 411.221858 227.109123 0 411.221858-184.112735 411.221858-411.221858 0-252.514965-244.846664-473.940235-375.771276-598.519511m31.408187 882.124172a24.499366 24.499366 0 0 1-5.38986-48.70474c7.447807-0.832978 182.887767-22.980405 201.899275-202.48726a24.499366 24.499366 0 1 1 48.753738 5.169366c-23.249898 219.195827-243.05821 245.77764-245.263153 246.022634" p-id="4050"></path></svg>